<svg xmlns="http://www.w3.org/2000/svg" viewBox="0 0 1333.2 640" font-family="Barlow, 'Segoe UI', Arial, sans-serif"><title>The Courtyard elevations</title><style>
    .bp{fill:none;stroke:#f2f7ff;stroke-width:1.4}.bp.fill{fill:#15508f}.bp.thin{stroke-width:.7;stroke:#cfe0f5}.bp.ground{stroke-width:2.4}
    .bp.hatch{fill:url(#brick)}.bpt{font-size:13px;fill:#e4efff;text-anchor:middle}
    .cap{font-size:15px;font-weight:700;fill:#fff;letter-spacing:.08em}.capsub{font-size:12px;fill:#b9d0ee}
    .tb{fill:none;stroke:#f2f7ff;stroke-width:1}.tbt{font-size:12px;fill:#e4efff}.tbh{font-size:17px;font-weight:700;fill:#fff}</style><defs><pattern id="grid" width="17" height="17" patternUnits="userSpaceOnUse"><path d="M17 0H0V17" fill="none" stroke="rgba(255,255,255,.07)"/></pattern><pattern id="brick" width="12" height="6" patternUnits="userSpaceOnUse"><rect width="12" height="6" fill="#15508f"/><path d="M0 6h12M6 0v3M0 3h12M12 3v3" stroke="#9fc0e6" stroke-width=".6"/></pattern></defs>
<rect width="100%" height="100%" fill="#15508f"/><rect width="100%" height="100%" fill="url(#grid)"/>
<rect x="14" y="14" width="1305.2" height="612" class="tb"/><rect x="20" y="20" width="1293.2" height="600" class="tb"/>
<rect x="147.2" y="261" width="421.6" height="11.9" class="bp fill"/><rect x="154" y="272.9" width="408" height="95.2" class="bp fill"/><rect x="150.6" y="368.1" width="414.8" height="11.9" class="bp fill hatch"/><rect x="147.2" y="261" width="156.4" height="11.9" class="bp fill"/><rect x="154" y="272.9" width="142.8" height="95.2" class="bp fill"/><rect x="150.6" y="368.1" width="149.6" height="11.9" class="bp fill hatch"/><rect x="412.4" y="261" width="156.4" height="11.9" class="bp fill"/><rect x="419.2" y="272.9" width="142.8" height="95.2" class="bp fill"/><rect x="415.8" y="368.1" width="149.6" height="11.9" class="bp fill hatch"/><rect x="313.8" y="296.7" width="88.4" height="71.4" class="bp fill"/><path d="M358 296.7V368.1" class="bp"/><rect x="181.2" y="295" width="54.4" height="40.8" class="bp fill"/><path d="M208.4 295V335.8M181.2 319.5H235.6" class="bp thin"/><rect x="177.2" y="335.8" width="62.4" height="4" class="bp"/><rect x="494" y="293.3" width="34" height="23.8" class="bp fill"/><path d="M511 293.3V317.1M494 307.6H528" class="bp thin"/><rect x="490" y="317.1" width="42" height="4" class="bp"/><rect x="296.8" y="279.7" width="122.4" height="6.1" class="bp fill"/><rect x="297.2" y="279.7" width="6" height="100.3" class="bp fill"/><rect x="412.8" y="279.7" width="6" height="100.3" class="bp fill"/><rect x="572.2" y="291.6" width="108.8" height="6.1" class="bp fill"/><rect x="570.9" y="291.6" width="6" height="88.4" class="bp fill"/><rect x="676.3" y="291.6" width="6" height="88.4" class="bp fill"/><path d="M120 380H715" class="bp ground"/><path d="M120 382l-8 10" class="bp thin"/><path d="M130.2 382l-8 10" class="bp thin"/><path d="M140.4 382l-8 10" class="bp thin"/><path d="M150.6 382l-8 10" class="bp thin"/><path d="M160.8 382l-8 10" class="bp thin"/><path d="M171 382l-8 10" class="bp thin"/><path d="M181.2 382l-8 10" class="bp thin"/><path d="M191.4 382l-8 10" class="bp thin"/><path d="M201.6 382l-8 10" class="bp thin"/><path d="M211.8 382l-8 10" class="bp thin"/><path d="M222 382l-8 10" class="bp thin"/><path d="M232.2 382l-8 10" class="bp thin"/><path d="M242.4 382l-8 10" class="bp thin"/><path d="M252.6 382l-8 10" class="bp thin"/><path d="M262.8 382l-8 10" class="bp thin"/><path d="M273 382l-8 10" class="bp thin"/><path d="M283.2 382l-8 10" class="bp thin"/><path d="M293.4 382l-8 10" class="bp thin"/><path d="M303.6 382l-8 10" class="bp thin"/><path d="M313.8 382l-8 10" class="bp thin"/><path d="M324 382l-8 10" class="bp thin"/><path d="M334.2 382l-8 10" class="bp thin"/><path d="M344.4 382l-8 10" class="bp thin"/><path d="M354.6 382l-8 10" class="bp thin"/><path d="M364.8 382l-8 10" class="bp thin"/><path d="M375 382l-8 10" class="bp thin"/><path d="M385.2 382l-8 10" class="bp thin"/><path d="M395.4 382l-8 10" class="bp thin"/><path d="M405.6 382l-8 10" class="bp thin"/><path d="M415.8 382l-8 10" class="bp thin"/><path d="M426 382l-8 10" class="bp thin"/><path d="M436.2 382l-8 10" class="bp thin"/><path d="M446.4 382l-8 10" class="bp thin"/><path d="M456.6 382l-8 10" class="bp thin"/><path d="M466.8 382l-8 10" class="bp thin"/><path d="M477 382l-8 10" class="bp thin"/><path d="M487.2 382l-8 10" class="bp thin"/><path d="M497.4 382l-8 10" class="bp thin"/><path d="M507.6 382l-8 10" class="bp thin"/><path d="M517.8 382l-8 10" class="bp thin"/><path d="M528 382l-8 10" class="bp thin"/><path d="M538.2 382l-8 10" class="bp thin"/><path d="M548.4 382l-8 10" class="bp thin"/><path d="M558.6 382l-8 10" class="bp thin"/><path d="M568.8 382l-8 10" class="bp thin"/><path d="M579 382l-8 10" class="bp thin"/><path d="M589.2 382l-8 10" class="bp thin"/><path d="M599.4 382l-8 10" class="bp thin"/><path d="M609.6 382l-8 10" class="bp thin"/><path d="M619.8 382l-8 10" class="bp thin"/><path d="M630 382l-8 10" class="bp thin"/><path d="M640.2 382l-8 10" class="bp thin"/><path d="M650.4 382l-8 10" class="bp thin"/><path d="M660.6 382l-8 10" class="bp thin"/><path d="M670.8 382l-8 10" class="bp thin"/><path d="M681 382l-8 10" class="bp thin"/><path d="M691.2 382l-8 10" class="bp thin"/><path d="M701.4 382l-8 10" class="bp thin"/><path d="M711.6 382l-8 10" class="bp thin"/><path d="M154 414H562M154 408v12M562 408v12" class="bp thin"/><text x="358" y="432" class="bpt">12.0 m</text><path d="M110 380V261M104 380h12M104 261h12" class="bp thin"/><text x="102" y="320.5" class="bpt" transform="rotate(-90 102 320.5)">3.50 m</text><rect x="885.6" y="261" width="217.6" height="11.9" class="bp fill"/><rect x="892.4" y="272.9" width="204" height="95.2" class="bp fill"/><rect x="889" y="368.1" width="210.8" height="11.9" class="bp fill hatch"/><rect x="1089.6" y="261" width="156.4" height="11.9" class="bp fill"/><rect x="1096.4" y="272.9" width="142.8" height="95.2" class="bp fill"/><rect x="1093" y="368.1" width="149.6" height="11.9" class="bp fill hatch"/><rect x="885.6" y="261" width="217.6" height="11.9" class="bp fill"/><rect x="892.4" y="272.9" width="204" height="95.2" class="bp fill"/><rect x="889" y="368.1" width="210.8" height="11.9" class="bp fill hatch"/><rect x="919.6" y="296.7" width="149.6" height="71.4" class="bp fill"/><path d="M994.4 296.7V368.1" class="bp"/><rect x="1008" y="295" width="54.4" height="40.8" class="bp fill"/><path d="M1035.2 295V335.8M1008 319.5H1062.4" class="bp thin"/><rect x="1004" y="335.8" width="62.4" height="4" class="bp"/><rect x="1111.7" y="296.7" width="28.9" height="71.4" class="bp fill"/><rect x="1117.7" y="302.7" width="16.9" height="28.6" class="bp thin"/><circle cx="1132.6" cy="334.1" r="2" class="bp"/><rect x="892.4" y="291.6" width="190.4" height="6.1" class="bp fill"/><rect x="891.1" y="291.6" width="6" height="88.4" class="bp fill"/><rect x="1078.1" y="291.6" width="6" height="88.4" class="bp fill"/><path d="M858.4 380H1273.2" class="bp ground"/><path d="M858.4 382l-8 10" class="bp thin"/><path d="M868.6 382l-8 10" class="bp thin"/><path d="M878.8 382l-8 10" class="bp thin"/><path d="M889 382l-8 10" class="bp thin"/><path d="M899.2 382l-8 10" class="bp thin"/><path d="M909.4 382l-8 10" class="bp thin"/><path d="M919.6 382l-8 10" class="bp thin"/><path d="M929.8 382l-8 10" class="bp thin"/><path d="M940 382l-8 10" class="bp thin"/><path d="M950.2 382l-8 10" class="bp thin"/><path d="M960.4 382l-8 10" class="bp thin"/><path d="M970.6 382l-8 10" class="bp thin"/><path d="M980.8 382l-8 10" class="bp thin"/><path d="M991 382l-8 10" class="bp thin"/><path d="M1001.2 382l-8 10" class="bp thin"/><path d="M1011.4 382l-8 10" class="bp thin"/><path d="M1021.6 382l-8 10" class="bp thin"/><path d="M1031.8 382l-8 10" class="bp thin"/><path d="M1042 382l-8 10" class="bp thin"/><path d="M1052.2 382l-8 10" class="bp thin"/><path d="M1062.4 382l-8 10" class="bp thin"/><path d="M1072.6 382l-8 10" class="bp thin"/><path d="M1082.8 382l-8 10" class="bp thin"/><path d="M1093 382l-8 10" class="bp thin"/><path d="M1103.2 382l-8 10" class="bp thin"/><path d="M1113.4 382l-8 10" class="bp thin"/><path d="M1123.6 382l-8 10" class="bp thin"/><path d="M1133.8 382l-8 10" class="bp thin"/><path d="M1144 382l-8 10" class="bp thin"/><path d="M1154.2 382l-8 10" class="bp thin"/><path d="M1164.4 382l-8 10" class="bp thin"/><path d="M1174.6 382l-8 10" class="bp thin"/><path d="M1184.8 382l-8 10" class="bp thin"/><path d="M1195 382l-8 10" class="bp thin"/><path d="M1205.2 382l-8 10" class="bp thin"/><path d="M1215.4 382l-8 10" class="bp thin"/><path d="M1225.6 382l-8 10" class="bp thin"/><path d="M1235.8 382l-8 10" class="bp thin"/><path d="M1246 382l-8 10" class="bp thin"/><path d="M1256.2 382l-8 10" class="bp thin"/><path d="M1266.4 382l-8 10" class="bp thin"/><path d="M892.4 414H1239.2M892.4 408v12M1239.2 408v12" class="bp thin"/><text x="1065.8" y="432" class="bpt">10.2 m</text><path d="M848.4 380V261M842.4 380h12M842.4 261h12" class="bp thin"/><text x="840.4" y="320.5" class="bpt" transform="rotate(-90 840.4 320.5)">3.50 m</text>
<text x="154" y="464" class="cap">FRONT ELEVATION</text><text x="154" y="482" class="capsub">Scale 1:100 (indicative)</text>
<text x="892.4" y="464" class="cap">SIDE ELEVATION (EAST)</text><text x="892.4" y="482" class="capsub">Scale 1:100 (indicative)</text>
<g><rect x="953.2" y="528" width="352" height="78" class="tb"/><path d="M953.2 558h352M1183.2 558v48" class="tb"/>
<text x="965.2" y="549" class="tbh">EVOLUTION ENGINEERS</text>
<text x="965.2" y="578" class="tbt">The Courtyard · 100.8 m²</text>
<text x="965.2" y="596" class="tbt">Concept, not for construction</text>
<text x="1195.2" y="578" class="tbt">Sheet A-201</text><text x="1195.2" y="596" class="tbt">Elevations</text></g>
</svg>