<svg xmlns="http://www.w3.org/2000/svg" viewBox="0 0 1224.4 640" font-family="Barlow, 'Segoe UI', Arial, sans-serif"><title>The Family Two elevations</title><style>
    .bp{fill:none;stroke:#f2f7ff;stroke-width:1.4}.bp.fill{fill:#15508f}.bp.thin{stroke-width:.7;stroke:#cfe0f5}.bp.ground{stroke-width:2.4}
    .bp.hatch{fill:url(#brick)}.bpt{font-size:13px;fill:#e4efff;text-anchor:middle}
    .cap{font-size:15px;font-weight:700;fill:#fff;letter-spacing:.08em}.capsub{font-size:12px;fill:#b9d0ee}
    .tb{fill:none;stroke:#f2f7ff;stroke-width:1}.tbt{font-size:12px;fill:#e4efff}.tbh{font-size:17px;font-weight:700;fill:#fff}</style><defs><pattern id="grid" width="17" height="17" patternUnits="userSpaceOnUse"><path d="M17 0H0V17" fill="none" stroke="rgba(255,255,255,.07)"/></pattern><pattern id="brick" width="12" height="6" patternUnits="userSpaceOnUse"><rect width="12" height="6" fill="#15508f"/><path d="M0 6h12M6 0v3M0 3h12M12 3v3" stroke="#9fc0e6" stroke-width=".6"/></pattern></defs>
<rect width="100%" height="100%" fill="#15508f"/><rect width="100%" height="100%" fill="url(#grid)"/>
<rect x="14" y="14" width="1196.4" height="612" class="tb"/><rect x="20" y="20" width="1184.4" height="600" class="tb"/>
<rect x="138.7" y="218.5" width="268.6" height="54.4" class="bp fill"/><path d="M138.7 264.4H407.3" class="bp thin"/><path d="M138.7 255.9H407.3" class="bp thin"/><path d="M138.7 247.4H407.3" class="bp thin"/><path d="M138.7 238.9H407.3" class="bp thin"/><path d="M138.7 230.4H407.3" class="bp thin"/><path d="M138.7 221.9H407.3" class="bp thin"/><rect x="154" y="272.9" width="238" height="95.2" class="bp fill"/><rect x="150.6" y="368.1" width="244.8" height="11.9" class="bp fill hatch"/><polygon points="376.7,276.3 563.7,276.3 470.2,218.5" class="bp fill"/><rect x="392" y="272.9" width="156.4" height="95.2" class="bp fill"/><rect x="388.6" y="368.1" width="163.2" height="11.9" class="bp fill hatch"/><rect x="310.4" y="296.7" width="30.6" height="71.4" class="bp fill"/><rect x="316.4" y="302.7" width="18.6" height="28.6" class="bp thin"/><circle cx="333" cy="334.1" r="2" class="bp"/><rect x="184.6" y="295" width="81.6" height="40.8" class="bp fill"/><path d="M225.4 295V335.8M184.6 319.5H266.2" class="bp thin"/><rect x="180.6" y="335.8" width="89.6" height="4" class="bp"/><rect x="453.2" y="295" width="61.2" height="40.8" class="bp fill"/><path d="M483.8 295V335.8M453.2 319.5H514.4" class="bp thin"/><rect x="449.2" y="335.8" width="69.2" height="4" class="bp"/><rect x="143.8" y="274.6" width="258.4" height="5.1" class="bp fill"/><rect x="156.1" y="274.6" width="6" height="98.6" class="bp fill"/><rect x="270" y="274.6" width="6" height="98.6" class="bp fill"/><rect x="383.9" y="274.6" width="6" height="98.6" class="bp fill"/><path d="M120 380H582.4" class="bp ground"/><path d="M120 382l-8 10" class="bp thin"/><path d="M130.2 382l-8 10" class="bp thin"/><path d="M140.4 382l-8 10" class="bp thin"/><path d="M150.6 382l-8 10" class="bp thin"/><path d="M160.8 382l-8 10" class="bp thin"/><path d="M171 382l-8 10" class="bp thin"/><path d="M181.2 382l-8 10" class="bp thin"/><path d="M191.4 382l-8 10" class="bp thin"/><path d="M201.6 382l-8 10" class="bp thin"/><path d="M211.8 382l-8 10" class="bp thin"/><path d="M222 382l-8 10" class="bp thin"/><path d="M232.2 382l-8 10" class="bp thin"/><path d="M242.4 382l-8 10" class="bp thin"/><path d="M252.6 382l-8 10" class="bp thin"/><path d="M262.8 382l-8 10" class="bp thin"/><path d="M273 382l-8 10" class="bp thin"/><path d="M283.2 382l-8 10" class="bp thin"/><path d="M293.4 382l-8 10" class="bp thin"/><path d="M303.6 382l-8 10" class="bp thin"/><path d="M313.8 382l-8 10" class="bp thin"/><path d="M324 382l-8 10" class="bp thin"/><path d="M334.2 382l-8 10" class="bp thin"/><path d="M344.4 382l-8 10" class="bp thin"/><path d="M354.6 382l-8 10" class="bp thin"/><path d="M364.8 382l-8 10" class="bp thin"/><path d="M375 382l-8 10" class="bp thin"/><path d="M385.2 382l-8 10" class="bp thin"/><path d="M395.4 382l-8 10" class="bp thin"/><path d="M405.6 382l-8 10" class="bp thin"/><path d="M415.8 382l-8 10" class="bp thin"/><path d="M426 382l-8 10" class="bp thin"/><path d="M436.2 382l-8 10" class="bp thin"/><path d="M446.4 382l-8 10" class="bp thin"/><path d="M456.6 382l-8 10" class="bp thin"/><path d="M466.8 382l-8 10" class="bp thin"/><path d="M477 382l-8 10" class="bp thin"/><path d="M487.2 382l-8 10" class="bp thin"/><path d="M497.4 382l-8 10" class="bp thin"/><path d="M507.6 382l-8 10" class="bp thin"/><path d="M517.8 382l-8 10" class="bp thin"/><path d="M528 382l-8 10" class="bp thin"/><path d="M538.2 382l-8 10" class="bp thin"/><path d="M548.4 382l-8 10" class="bp thin"/><path d="M558.6 382l-8 10" class="bp thin"/><path d="M568.8 382l-8 10" class="bp thin"/><path d="M579 382l-8 10" class="bp thin"/><path d="M154 414H548.4M154 408v12M548.4 408v12" class="bp thin"/><text x="351.2" y="432" class="bpt">11.6 m</text><path d="M110 380V218.5M104 380h12M104 218.5h12" class="bp thin"/><text x="102" y="299.3" class="bpt" transform="rotate(-90 102 299.3)">4.75 m</text><polygon points="877.1,276.3 1077.7,276.3 977.4,218.5" class="bp fill"/><rect x="892.4" y="272.9" width="170" height="95.2" class="bp fill"/><rect x="889" y="368.1" width="176.8" height="11.9" class="bp fill hatch"/><rect x="741.1" y="218.5" width="336.6" height="54.4" class="bp fill"/><path d="M741.1 264.4H1077.7" class="bp thin"/><path d="M741.1 255.9H1077.7" class="bp thin"/><path d="M741.1 247.4H1077.7" class="bp thin"/><path d="M741.1 238.9H1077.7" class="bp thin"/><path d="M741.1 230.4H1077.7" class="bp thin"/><path d="M741.1 221.9H1077.7" class="bp thin"/><rect x="756.4" y="272.9" width="306" height="95.2" class="bp fill"/><rect x="753" y="368.1" width="312.8" height="11.9" class="bp fill hatch"/><rect x="974" y="295" width="47.6" height="40.8" class="bp fill"/><path d="M997.8 295V335.8M974 319.5H1021.6" class="bp thin"/><rect x="970" y="335.8" width="55.6" height="4" class="bp"/><rect x="894.1" y="293.3" width="23.8" height="20.4" class="bp fill"/><path d="M906 293.3V313.7M894.1 305.5H917.9" class="bp thin"/><rect x="890.1" y="313.7" width="31.8" height="4" class="bp"/><rect x="797.2" y="295" width="47.6" height="40.8" class="bp fill"/><path d="M821 295V335.8M797.2 319.5H844.8" class="bp thin"/><rect x="793.2" y="335.8" width="55.6" height="4" class="bp"/><rect x="814.2" y="274.6" width="78.2" height="5.1" class="bp fill"/><rect x="824.8" y="274.6" width="6" height="98.6" class="bp fill"/><path d="M722.4 380H1096.4" class="bp ground"/><path d="M722.4 382l-8 10" class="bp thin"/><path d="M732.6 382l-8 10" class="bp thin"/><path d="M742.8 382l-8 10" class="bp thin"/><path d="M753 382l-8 10" class="bp thin"/><path d="M763.2 382l-8 10" class="bp thin"/><path d="M773.4 382l-8 10" class="bp thin"/><path d="M783.6 382l-8 10" class="bp thin"/><path d="M793.8 382l-8 10" class="bp thin"/><path d="M804 382l-8 10" class="bp thin"/><path d="M814.2 382l-8 10" class="bp thin"/><path d="M824.4 382l-8 10" class="bp thin"/><path d="M834.6 382l-8 10" class="bp thin"/><path d="M844.8 382l-8 10" class="bp thin"/><path d="M855 382l-8 10" class="bp thin"/><path d="M865.2 382l-8 10" class="bp thin"/><path d="M875.4 382l-8 10" class="bp thin"/><path d="M885.6 382l-8 10" class="bp thin"/><path d="M895.8 382l-8 10" class="bp thin"/><path d="M906 382l-8 10" class="bp thin"/><path d="M916.2 382l-8 10" class="bp thin"/><path d="M926.4 382l-8 10" class="bp thin"/><path d="M936.6 382l-8 10" class="bp thin"/><path d="M946.8 382l-8 10" class="bp thin"/><path d="M957 382l-8 10" class="bp thin"/><path d="M967.2 382l-8 10" class="bp thin"/><path d="M977.4 382l-8 10" class="bp thin"/><path d="M987.6 382l-8 10" class="bp thin"/><path d="M997.8 382l-8 10" class="bp thin"/><path d="M1008 382l-8 10" class="bp thin"/><path d="M1018.2 382l-8 10" class="bp thin"/><path d="M1028.4 382l-8 10" class="bp thin"/><path d="M1038.6 382l-8 10" class="bp thin"/><path d="M1048.8 382l-8 10" class="bp thin"/><path d="M1059 382l-8 10" class="bp thin"/><path d="M1069.2 382l-8 10" class="bp thin"/><path d="M1079.4 382l-8 10" class="bp thin"/><path d="M1089.6 382l-8 10" class="bp thin"/><path d="M756.4 414H1062.4M756.4 408v12M1062.4 408v12" class="bp thin"/><text x="909.4" y="432" class="bpt">9.0 m</text><path d="M712.4 380V218.5M706.4 380h12M706.4 218.5h12" class="bp thin"/><text x="704.4" y="299.3" class="bpt" transform="rotate(-90 704.4 299.3)">4.75 m</text>
<text x="154" y="464" class="cap">FRONT ELEVATION</text><text x="154" y="482" class="capsub">Scale 1:100 (indicative)</text>
<text x="756.4" y="464" class="cap">SIDE ELEVATION (EAST)</text><text x="756.4" y="482" class="capsub">Scale 1:100 (indicative)</text>
<g><rect x="844.4" y="528" width="352" height="78" class="tb"/><path d="M844.4 558h352M1074.4 558v48" class="tb"/>
<text x="856.4" y="549" class="tbh">EVOLUTION ENGINEERS</text>
<text x="856.4" y="578" class="tbt">The Family Two · 76.4 m²</text>
<text x="856.4" y="596" class="tbt">Concept, not for construction</text>
<text x="1086.4" y="578" class="tbt">Sheet A-201</text><text x="1086.4" y="596" class="tbt">Elevations</text></g>
</svg>